<?xml version="1.0" encoding="utf-8"?>
<svg version="1.1" id="Club_de_Conquistadores" xmlns="http://www.w3.org/2000/svg" xmlns:xlink="http://www.w3.org/1999/xlink" x="0px" y="0px" viewBox="0 0 962 1000" style="enable-background:new 0 0 962 1000;" xml:space="preserve">
<style type="text/css">
	.st0{fill:#E42613;}
	.st1{fill:#FFD300;}
	.st2{clip-path:url(#SVGID_2_);fill:#FFD300;}
	.st3{clip-path:url(#SVGID_2_);fill:#FFFFFF;}
	.st4{clip-path:url(#SVGID_2_);fill:#FFCB00;}
	.st5{clip-path:url(#SVGID_2_);fill:#133579;}
</style>
<g>
	<g id="Emblema_C1">
		<polygon class="st0" points="0,0 0,167.4 481.9,998.4 962,167.4 962,0 			"/>
		<path class="st1" d="M481.4,949.1L27.6,166.5V26.2h905.9v140.3L481.4,949.1z M905.6,168.4H55.5l425.9,726.9L905.6,168.4z
			 M54.7,144.2h851.7V53.9H54.7V144.2z"/>
		<g>
			<defs>
				<rect id="SVGID_1_" x="0" width="962" height="1000"/>
			</defs>
			<clipPath id="SVGID_2_">
				<use xlink:href="#SVGID_1_"  style="overflow:visible;"/>
			</clipPath>
			<path class="st2" d="M631.6,234.7c-59.8,1-151-26.1-151-26.1s-86.9,26-143.9,26c-57.2,0-144.2-26-144.2-26s11.7,128.1,48,199.4
				c56.9,111.8,240.1,213.7,240.1,213.7s183.3-101.9,240.2-213.8c36.2-71.3,47.9-199.3,47.9-199.3S686,233.7,631.6,234.7
				 M693.3,403.2c-50.5,98.9-212.6,189.2-212.6,189.2s-162.1-90.3-212.6-189.1c-29.2-57.2-42.5-159.1-42.5-159.1
				s77.6,16,127.7,14.4c50.4-1.7,127.4-23.1,127.4-23.1s80.8,22.1,133.7,23.1c47.6,0.9,121.3-14.4,121.3-14.4
				S722.5,346,693.3,403.2"/>
			<path class="st3" d="M707.4,271.7c0,0-16.1,83.9-41.6,131.1C619.4,488.6,479,569,479,569s-140.4-80.4-186.8-166.2
				c-25.5-47.2-41.6-131.2-41.6-131.2s71.1,11.7,116.5,8.3c44.6-3.3,111.9-24.6,111.9-24.6s70.7,21.8,117.5,24.6
				C639.8,282.6,707.4,271.7,707.4,271.7"/>
			<path class="st2" d="M423.7,672v-3.3c0-4.4-1.7-6.7-4.2-6.7c-4.1-0.1-5,2-5,5.4l-0.1,25.7c0,2.9,1.3,4.6,4.6,4.6
				c4.4,0,4.8-4.3,4.8-7.5v-4.7H437v6.4c0,8.9-5.5,15.2-18.8,15.2c-12.1,0-16.8-6-16.8-16.5v-21.3c0-11.3,5.6-16.5,17.6-16.5
				c11.2,0,17.9,4.4,17.9,15v4.4H423.7z"/>
			<polygon class="st2" points="442.6,705.8 442.6,653.8 455.7,653.8 455.7,695.3 471.7,695.3 471.7,705.8 				"/>
			<path class="st2" d="M476,653.8h13.1V693c0,2.5,0.8,4.6,4.5,4.6c3.4,0,4.5-2.8,4.5-5v-38.9h13.1v37.6c0,8.8-4.3,15.6-17.6,15.6
				c-11.1,0-17.6-4.9-17.6-15.6V653.8z"/>
			<path class="st2" d="M530.7,683.7c5.6,0.2,9.3,0.1,9.3,6.1c0,7-2.8,6.6-9.3,6.7V683.7z M530.7,663.2c4.6,0,8.4-0.2,8.4,5
				c0,6.2-2.7,5.8-8.4,6.2V663.2z M536,705.8c10.6,0,17-4.5,17-15c0-6.4-1.3-9.2-7.2-12.4v-0.1c4.6-2.3,6.4-6.4,6.4-11
				c0-10.5-7.8-13.4-17.7-13.4h-17v51.9H536z"/>
			<path class="st4" d="M423.7,672v-3.3c0-4.4-1.7-6.7-4.2-6.7c-4.1-0.1-5,2-5,5.4l-0.1,25.7c0,2.9,1.3,4.6,4.6,4.6
				c4.4,0,4.8-4.3,4.8-7.5v-4.7H437v6.4c0,8.9-5.5,15.2-18.8,15.2c-12.1,0-16.8-6-16.8-16.5v-21.3c0-11.3,5.6-16.5,17.6-16.5
				c11.2,0,17.9,4.4,17.9,15v4.4H423.7z"/>
			<polygon class="st4" points="442.6,705.8 442.6,653.8 455.7,653.8 455.7,695.3 471.7,695.3 471.7,705.8 				"/>
			<path class="st4" d="M476,653.8h13.1V693c0,2.5,0.8,4.6,4.5,4.6c3.4,0,4.5-2.8,4.5-5v-38.9h13.1v37.6c0,8.8-4.3,15.6-17.6,15.6
				c-11.1,0-17.6-4.9-17.6-15.6V653.8z"/>
			<path class="st4" d="M530.7,683.7c5.6,0.2,9.3,0.1,9.3,6.1c0,7-2.8,6.6-9.3,6.7V683.7z M530.7,663.2c4.6,0,8.4-0.2,8.4,5
				c0,6.2-2.7,5.8-8.4,6.2V663.2z M536,705.8c10.6,0,17-4.5,17-15c0-6.4-1.3-9.2-7.2-12.4v-0.1c4.6-2.3,6.4-6.4,6.4-11
				c0-10.5-7.8-13.4-17.7-13.4h-17v51.9H536z"/>
			<polygon class="st5" points="378.2,455.6 383.5,453.7 778.3,267 364,408.1 360.2,409.9 346.6,353.9 359.6,332.1 283.7,353.9 
				311.9,366.9 331.3,423.6 281.5,447.2 266.3,425.5 242.5,432 279.4,523.2 303.2,512.3 298.9,484.1 350.8,465.5 383.5,523.2 
				377,551.4 435.5,516.7 405.2,503.6 				"/>
			<path class="st2" d="M110.6,102.1l15.3,4.6c-1,4.3-2.7,7.9-4.9,10.8c-2.2,2.9-5,5-8.2,6.5c-3.3,1.5-7.5,2.2-12.5,2.2
				c-6.1,0-11.2-0.9-15-2.7c-3.9-1.8-7.3-4.9-10.1-9.4c-2.8-4.5-4.2-10.2-4.2-17.2c0-9.4,2.5-16.5,7.5-21.6c5-5,12-7.5,21.1-7.5
				c7.1,0,12.7,1.4,16.8,4.3c4.1,2.9,7.1,7.3,9.1,13.3l-15.4,3.4c-0.5-1.7-1.1-3-1.7-3.8c-1-1.3-2.2-2.4-3.6-3.1
				c-1.4-0.7-3-1.1-4.7-1.1c-3.9,0-7,1.6-9.1,4.8c-1.6,2.4-2.4,6.1-2.4,11.1c0,6.3,1,10.6,2.9,12.9c1.9,2.3,4.6,3.5,8,3.5
				c3.4,0,5.9-0.9,7.6-2.8C108.6,108.4,109.8,105.7,110.6,102.1"/>
			<path class="st2" d="M132.2,97c0-9.2,2.6-16.4,7.7-21.6c5.1-5.1,12.3-7.7,21.5-7.7c9.4,0,16.6,2.5,21.7,7.6
				c5.1,5,7.6,12.1,7.6,21.2c0,6.6-1.1,12-3.3,16.3c-2.2,4.2-5.4,7.5-9.6,9.9c-4.2,2.3-9.4,3.5-15.7,3.5c-6.4,0-11.6-1-15.8-3
				c-4.2-2-7.6-5.3-10.2-9.6C133.5,109.1,132.2,103.6,132.2,97 M149.6,97.1c0,5.7,1.1,9.8,3.2,12.3c2.1,2.5,5,3.7,8.6,3.7
				c3.8,0,6.7-1.2,8.7-3.7c2.1-2.4,3.1-6.8,3.1-13.2c0-5.3-1.1-9.2-3.2-11.7c-2.1-2.4-5.1-3.7-8.7-3.7c-3.5,0-6.3,1.2-8.5,3.7
				S149.6,91.3,149.6,97.1"/>
			<polygon class="st2" points="200.2,68.7 216.5,68.7 237.8,100 237.8,68.7 254.3,68.7 254.3,125.2 237.8,125.2 216.6,94.2 
				216.6,125.2 200.2,125.2 				"/>
			<path class="st2" d="M316,117c2.2,1.5,3.6,2.5,4.3,2.9c1,0.6,2.4,1.2,4.1,2l-4.9,9.8c-2.4-1.2-4.9-2.6-7.2-4.2
				c-2.4-1.6-4.1-2.9-5-3.7c-3.8,1.7-8.7,2.5-14.5,2.5c-8.6,0-15.4-2.2-20.3-6.7c-5.9-5.3-8.8-12.7-8.8-22.3
				c0-9.3,2.6-16.5,7.7-21.7c5.1-5.2,12.3-7.7,21.5-7.7c9.4,0,16.6,2.5,21.7,7.6c5.1,5,7.6,12.2,7.6,21.6
				C322.2,105.3,320.1,111.9,316,117 M302.6,108c1.4-2.5,2.1-6.2,2.1-11.2c0-5.7-1.1-9.8-3.2-12.2c-2.1-2.4-5.1-3.7-8.8-3.7
				c-3.5,0-6.3,1.3-8.4,3.8c-2.2,2.5-3.2,6.4-3.2,11.7c0,6.2,1.1,10.5,3.2,13c2.1,2.5,5,3.7,8.7,3.7c1.2,0,2.3-0.1,3.3-0.3
				c-1.5-1.4-3.8-2.8-6.9-4l2.7-6.3c1.5,0.3,2.7,0.6,3.6,1c0.8,0.4,2.5,1.5,5,3.2C301.3,107.2,301.9,107.6,302.6,108"/>
			<path class="st2" d="M368.4,68.7h17.4v33.7c0,3.3-0.5,6.5-1.5,9.5c-1,3-2.7,5.6-4.9,7.8c-2.2,2.2-4.5,3.8-7,4.7
				c-3.4,1.3-7.5,1.9-12.2,1.9c-2.7,0-5.7-0.2-9-0.6c-3.3-0.4-6-1.2-8.2-2.3c-2.2-1.1-4.2-2.8-6-4.9c-1.8-2.1-3-4.3-3.7-6.5
				c-1.1-3.6-1.6-6.8-1.6-9.6V68.7H349v34.5c0,3.1,0.8,5.5,2.6,7.2c1.7,1.7,4.1,2.6,7.1,2.6c3,0,5.4-0.8,7.1-2.6
				c1.7-1.7,2.6-4.1,2.6-7.3V68.7z"/>
			<rect x="398" y="68.7" class="st2" width="17.5" height="56.5"/>
			<path class="st2" d="M425,106.5l16.6-1c0.4,2.7,1.1,4.8,2.2,6.2c1.8,2.3,4.4,3.4,7.7,3.4c2.5,0,4.4-0.6,5.8-1.8
				c1.4-1.2,2-2.5,2-4.1c0-1.5-0.7-2.8-1.9-3.9s-4.3-2.3-8.9-3.3c-7.6-1.7-13.1-4-16.4-6.9c-3.3-2.8-4.9-6.5-4.9-10.9
				c0-2.9,0.8-5.6,2.5-8.2c1.7-2.6,4.2-4.6,7.6-6.1c3.4-1.5,8-2.2,13.9-2.2c7.2,0,12.7,1.3,16.5,4c3.8,2.7,6,7,6.8,12.8l-16.5,1
				c-0.4-2.5-1.4-4.4-2.8-5.6c-1.4-1.2-3.3-1.7-5.8-1.7c-2,0-3.6,0.4-4.6,1.3c-1,0.9-1.5,1.9-1.5,3.1c0,0.9,0.4,1.7,1.3,2.4
				c0.8,0.8,2.8,1.5,5.9,2.1c7.6,1.6,13.1,3.3,16.4,5c3.3,1.7,5.7,3.8,7.2,6.3c1.5,2.5,2.3,5.3,2.3,8.4c0,3.6-1,7-3,10
				c-2,3.1-4.8,5.4-8.4,7c-3.6,1.6-8.1,2.4-13.6,2.4c-9.6,0-16.3-1.8-20-5.5C427.6,116.9,425.5,112.2,425,106.5"/>
			<polygon class="st2" points="481.1,68.7 534.1,68.7 534.1,82.7 516.3,82.7 516.3,125.2 498.9,125.2 498.9,82.7 481.1,82.7 				
				"/>
			<path class="st2" d="M571.4,115.9h-19.8l-2.8,9.3H531l21.2-56.5h19l21.2,56.5h-18.3L571.4,115.9z M567.8,103.7l-6.2-20.3
				l-6.2,20.3H567.8z"/>
			<path class="st2" d="M598.3,68.7h25.9c5.1,0,9.2,0.7,12.4,2.1c3.2,1.4,5.8,3.4,7.8,6c2.1,2.6,3.6,5.6,4.5,9.1
				c0.9,3.5,1.4,7.1,1.4,11c0,6-0.7,10.7-2.1,14c-1.4,3.3-3.3,6.1-5.7,8.4c-2.4,2.3-5.1,3.8-7.9,4.5c-3.8,1-7.3,1.6-10.4,1.6h-25.9
				V68.7z M615.7,81.5v30.9h4.3c3.7,0,6.2-0.4,7.8-1.2c1.5-0.8,2.7-2.2,3.6-4.2c0.9-2,1.3-5.3,1.3-9.8c0-6-1-10.1-2.9-12.3
				c-2-2.2-5.2-3.3-9.7-3.3H615.7z"/>
			<path class="st2" d="M657.2,97c0-9.2,2.6-16.4,7.7-21.6s12.3-7.7,21.5-7.7c9.4,0,16.6,2.5,21.7,7.6c5.1,5,7.6,12.1,7.6,21.2
				c0,6.6-1.1,12-3.3,16.3c-2.2,4.2-5.4,7.5-9.6,9.9c-4.2,2.3-9.4,3.5-15.7,3.5c-6.4,0-11.7-1-15.8-3c-4.2-2-7.5-5.3-10.1-9.6
				C658.5,109.1,657.2,103.6,657.2,97 M674.7,97.1c0,5.7,1.1,9.8,3.2,12.3s5,3.7,8.6,3.7c3.8,0,6.7-1.2,8.7-3.7
				c2.1-2.4,3.1-6.8,3.1-13.2c0-5.3-1.1-9.2-3.2-11.7c-2.2-2.4-5.1-3.7-8.7-3.7c-3.5,0-6.3,1.2-8.5,3.7S674.7,91.3,674.7,97.1"/>
			<path class="st2" d="M725.4,125.2V68.7h29.1c5.4,0,9.5,0.5,12.4,1.4c2.9,0.9,5.2,2.6,6.9,5.2c1.8,2.5,2.6,5.5,2.6,9.2
				c0,3.1-0.7,5.8-2,8.1c-1.3,2.3-3.2,4.1-5.5,5.5c-1.5,0.9-3.6,1.6-6.1,2.2c2.1,0.7,3.6,1.4,4.5,2.1c0.6,0.5,1.6,1.5,2.8,3
				c1.2,1.5,2,2.7,2.4,3.5l8.4,16.4h-19.7l-9.3-17.3c-1.2-2.2-2.2-3.7-3.1-4.4c-1.3-0.9-2.7-1.3-4.3-1.3h-1.5v22.9H725.4z
				 M742.9,91.6h7.4c0.8,0,2.3-0.3,4.6-0.8c1.2-0.2,2.1-0.8,2.8-1.8c0.7-0.9,1.1-2,1.1-3.3c0-1.8-0.6-3.2-1.7-4.2
				c-1.1-1-3.3-1.5-6.5-1.5h-7.7V91.6z"/>
			<polygon class="st2" points="786.5,68.7 833.3,68.7 833.3,80.8 804,80.8 804,89.7 831.2,89.7 831.2,101.3 804,101.3 804,112.4 
				834.1,112.4 834.1,125.2 786.5,125.2 				"/>
			<path class="st2" d="M840.5,106.5l16.6-1c0.3,2.7,1.1,4.8,2.2,6.2c1.8,2.3,4.4,3.4,7.7,3.4c2.5,0,4.4-0.6,5.8-1.8
				c1.4-1.2,2-2.5,2-4.1c0-1.5-0.6-2.8-1.9-3.9s-4.3-2.3-8.9-3.3c-7.7-1.7-13.1-4-16.4-6.9c-3.3-2.8-4.9-6.5-4.9-10.9
				c0-2.9,0.8-5.6,2.5-8.2c1.7-2.6,4.2-4.6,7.6-6.1c3.4-1.5,8-2.2,13.9-2.2c7.2,0,12.7,1.3,16.5,4c3.8,2.7,6,7,6.8,12.8l-16.5,1
				c-0.4-2.5-1.4-4.4-2.8-5.6c-1.4-1.2-3.3-1.7-5.8-1.7c-2,0-3.6,0.4-4.6,1.3c-1,0.9-1.5,1.9-1.5,3.1c0,0.9,0.4,1.7,1.3,2.4
				c0.8,0.8,2.8,1.5,5.9,2.1c7.6,1.6,13.1,3.3,16.4,5c3.3,1.7,5.7,3.8,7.2,6.3c1.5,2.5,2.3,5.3,2.3,8.4c0,3.6-1,7-3,10
				c-2,3.1-4.8,5.4-8.4,7c-3.6,1.6-8.1,2.4-13.6,2.4c-9.6,0-16.3-1.8-20-5.5C843.1,116.9,841,112.2,840.5,106.5"/>
		</g>
	</g>
</g>
</svg>
